<svg id="Layer_1" width="105" height="105" data-name="Layer 1" xmlns="http://www.w3.org/2000/svg" viewBox="0 0 40.32 27.4"><defs><style>.cls-1{fill:#0075bc;}</style></defs><title>Home</title><path class="cls-1" d="M8.54,11l-3,2a.45.45,0,0,0,0,.74l5.66,3.78a.57.57,0,0,1,0,1L9.42,19.78a.81.81,0,0,1-.91,0L.22,14.14a.49.49,0,0,1,0-.82L8.51,7.68a.81.81,0,0,1,.91,0l5.74,3.91a.81.81,0,0,1,.35.71L15.43,14a.59.59,0,0,1-.92.46L9.44,11A.81.81,0,0,0,8.54,11Z"/><path class="cls-1" d="M29, 21.66,20.8,27.21a1.08,1.08,0,0,1-1.22,0l-8.16-5.55a.48.48,0,0,1,0-.79l1.89-1.29a.93.93,0,0,1,1,0l5.34,3.56a.81.81,0,0,0,.89,0l3-2a.45.45,0,0,0,0-.75l-3.45-2.31a.81.81,0,0,1-.36-.7l0-1.22a.68.68,0,0,1,.72-.66l.44,0a.44.44,0,0,1,.22.08L29,20.87A.48.48,0,0,1,29,21.66Z"/><path class="cls-1" d="M20.27,11.17l.3-7.23a.51.51,0,0,0-.8-.45L15.84,6.17a.81.81,0,0,0-.35.63l-.07, 1.37a.63.63,0,0,1-1,.49L11.38,6.56a.45.45,0,0,1,0-.74L19.73.14a.81.81,0,0,1,.91,0l8.29,5.64a.49.49,0,0,1,0,.82l-7.59,5.17A.69.69,0,0,1,20.27,11.17Z"/><path class="cls-1" d="M40.07,14.2l-8.21,5.59a.81.81,0,0,1-.91,0l-3.58-2.44a.62.62,0,0,1,.38-1.13l3.15.15a.81.81,0,0,0,.48-.13l3.56-2.31a.45.45,0,0,0-.22-.82l-7.13-.43-1.81-.11a.63.63,0,0,1-.32-1.16L31,7.66a.77.77,0,0,1,.87,0l8.23,5.6A.56.56,0,0,1,40.07,14.2Z"/></svg>
